<svg xmlns="http://www.w3.org/2000/svg" viewBox="0 0 700.04 4.99"><defs><style>.cls-1{fill:#911c1d;}.cls-2{fill:#fbba13;}.cls-3{fill:#fff;}</style></defs><title>Asset 2long</title><g id="Layer_2" data-name="Layer 2"><g id="Layer_1-2" data-name="Layer 1"><g id="Layer_1-2-2" data-name="Layer 1-2"><rect class="cls-1" width="7.63" height="4.99"/><rect class="cls-2" x="7.63" width="16.63" height="4.99"/><rect class="cls-1" x="14.79" width="1.89" height="4.99"/><rect class="cls-1" x="18.6" width="4.01" height="4.99"/><rect class="cls-3" x="9.21" width="1.19" height="4.99"/><rect class="cls-1" x="137.05" width="7.63" height="4.99"/><rect class="cls-2" x="144.68" width="16.63" height="4.99"/><rect class="cls-1" x="151.85" width="1.89" height="4.99"/><rect class="cls-1" x="155.65" width="4.01" height="4.99"/><rect class="cls-3" x="146.26" width="1.19" height="4.99"/><rect class="cls-1" x="23.85" width="36.83" height="4.99"/><rect class="cls-2" x="60.68" width="80.3" height="4.99"/><rect class="cls-1" x="95.28" width="9.11" height="4.99"/><rect class="cls-1" x="113.65" width="19.36" height="4.99"/><rect class="cls-3" x="68.3" width="5.77" height="4.99"/><rect class="cls-3" x="117.84" width="5.77" height="4.99"/><rect class="cls-2" x="52.84" width="2.01" height="4.99"/><rect class="cls-3" x="42.26" width="2.01" height="4.99"/><rect class="cls-1" x="170.25" width="7.63" height="4.99"/><rect class="cls-2" x="177.88" width="16.63" height="4.99"/><rect class="cls-1" x="185.04" width="1.89" height="4.99"/><rect class="cls-1" x="188.85" width="4.01" height="4.99"/><rect class="cls-3" x="179.45" width="1.19" height="4.99"/><rect class="cls-1" x="307.3" width="7.63" height="4.99"/><rect class="cls-2" x="314.93" width="16.63" height="4.99"/><rect class="cls-1" x="322.1" width="1.89" height="4.99"/><rect class="cls-1" x="325.9" width="4.01" height="4.99"/><rect class="cls-3" x="316.51" width="1.19" height="4.99"/><rect class="cls-1" x="194.09" width="36.83" height="4.99"/><rect class="cls-2" x="230.92" width="80.3" height="4.99"/><rect class="cls-1" x="265.52" width="9.11" height="4.99"/><rect class="cls-1" x="283.89" width="19.36" height="4.99"/><rect class="cls-3" x="238.54" width="5.77" height="4.99"/><rect class="cls-3" x="288.09" width="5.77" height="4.99"/><rect class="cls-2" x="223.09" width="2.01" height="4.99"/><rect class="cls-3" x="212.51" width="2.01" height="4.99"/><rect class="cls-1" x="161.32" width="7.63" height="4.99"/><rect class="cls-2" x="168.94" width="16.63" height="4.99"/><rect class="cls-1" x="176.11" width="1.89" height="4.99"/><rect class="cls-1" x="179.91" width="4.01" height="4.99"/><rect class="cls-3" x="170.52" width="1.19" height="4.99"/><rect class="cls-1" x="298.37" width="7.63" height="4.99"/><rect class="cls-2" x="306" width="16.63" height="4.99"/><rect class="cls-1" x="313.16" width="1.89" height="4.99"/><rect class="cls-1" x="316.97" width="4.01" height="4.99"/><rect class="cls-3" x="307.58" width="1.19" height="4.99"/><rect class="cls-1" x="185.16" width="36.83" height="4.99"/><rect class="cls-2" x="221.99" width="80.3" height="4.99"/><rect class="cls-1" x="256.59" width="9.11" height="4.99"/><rect class="cls-1" x="274.96" width="19.36" height="4.99"/><rect class="cls-3" x="229.61" width="5.77" height="4.99"/><rect class="cls-3" x="279.15" width="5.77" height="4.99"/><rect class="cls-2" x="214.15" width="2.01" height="4.99"/><rect class="cls-3" x="203.58" width="2.01" height="4.99"/></g><rect class="cls-1" x="327.9" width="4.39" height="4.99"/><rect class="cls-2" x="332.3" width="9.57" height="4.99"/><rect class="cls-1" x="336.42" width="1.09" height="4.99"/><rect class="cls-1" x="338.61" width="2.31" height="4.99"/><rect class="cls-3" x="333.21" width="0.68" height="4.99"/><rect class="cls-1" x="406.79" width="4.39" height="4.99"/><rect class="cls-2" x="411.19" width="9.57" height="4.99"/><rect class="cls-1" x="415.31" width="1.09" height="4.99"/><rect class="cls-1" x="417.5" width="2.31" height="4.99"/><rect class="cls-3" x="412.1" width="0.68" height="4.99"/><rect class="cls-1" x="341.63" width="21.2" height="4.99"/><rect class="cls-2" x="362.83" width="46.22" height="4.99"/><rect class="cls-1" x="382.75" width="5.24" height="4.99"/><rect class="cls-1" x="393.33" width="11.14" height="4.99"/><rect class="cls-3" x="367.22" width="3.32" height="4.99"/><rect class="cls-3" x="395.74" width="3.32" height="4.99"/><rect class="cls-2" x="358.32" width="1.16" height="4.99"/><rect class="cls-3" x="352.23" width="1.16" height="4.99"/><rect class="cls-1" x="425.91" width="4.39" height="4.99"/><rect class="cls-2" x="430.3" width="9.57" height="4.99"/><rect class="cls-1" x="434.42" width="1.09" height="4.99"/><rect class="cls-1" x="436.61" width="2.31" height="4.99"/><rect class="cls-3" x="431.2" width="0.68" height="4.99"/><rect class="cls-1" x="656.03" width="13.84" height="4.99"/><rect class="cls-2" x="669.87" width="30.16" height="4.99"/><rect class="cls-1" x="682.88" width="3.43" height="4.99"/><rect class="cls-1" x="689.77" width="7.27" height="4.99"/><rect class="cls-3" x="672.74" width="2.16" height="4.99"/><rect class="cls-1" x="450.69" width="66.8" height="4.99"/><rect class="cls-2" x="517.49" width="145.65" height="4.99"/><rect class="cls-1" x="580.25" width="16.52" height="4.99"/><rect class="cls-1" x="613.57" width="35.12" height="4.99"/><rect class="cls-3" x="531.31" width="10.47" height="4.99"/><rect class="cls-3" x="621.19" width="10.47" height="4.99"/><rect class="cls-2" x="503.29" width="3.65" height="4.99"/><rect class="cls-3" x="450.23" width="1.16" height="4.99"/><rect class="cls-1" x="420.77" width="4.39" height="4.99"/><rect class="cls-2" x="425.15" width="9.57" height="4.99"/><rect class="cls-1" x="429.28" width="1.09" height="4.99"/><rect class="cls-1" x="431.47" width="2.31" height="4.99"/><rect class="cls-3" x="426.06" width="0.68" height="4.99"/><rect class="cls-1" x="639.84" width="13.84" height="4.99"/><rect class="cls-2" x="653.68" width="30.16" height="4.99"/><rect class="cls-1" x="666.66" width="3.43" height="4.99"/><rect class="cls-1" x="673.57" width="7.27" height="4.99"/><rect class="cls-3" x="656.54" width="2.16" height="4.99"/><rect class="cls-1" x="434.49" width="66.8" height="4.99"/><rect class="cls-2" x="501.29" width="145.65" height="4.99"/><rect class="cls-1" x="564.05" width="16.52" height="4.99"/><rect class="cls-1" x="597.37" width="35.12" height="4.99"/><rect class="cls-3" x="515.11" width="10.47" height="4.99"/><rect class="cls-3" x="604.97" width="10.47" height="4.99"/><rect class="cls-2" x="451.18" width="1.16" height="4.99"/><rect class="cls-3" x="445.09" width="1.16" height="4.99"/><rect class="cls-1" x="518.08" width="4.39" height="4.99"/><rect class="cls-2" x="522.47" width="9.57" height="4.99"/><rect class="cls-1" x="526.6" width="1.09" height="4.99"/><rect class="cls-1" x="528.78" width="2.31" height="4.99"/><rect class="cls-3" x="523.38" width="0.68" height="4.99"/><rect class="cls-2" x="474.12" width="46.22" height="4.99"/><rect class="cls-1" x="504.61" width="11.14" height="4.99"/><rect class="cls-1" x="532.05" width="4.39" height="4.99"/><rect class="cls-2" x="536.43" width="9.57" height="4.99"/></g></g></svg>