<svg xmlns="http://www.w3.org/2000/svg" viewBox="0 0 330.44 162.26"><defs><style>.cls-1,.cls-3{fill:#fbba13;}.cls-2{fill:#911c1d;}.cls-3{font-size:32.59px;font-family:BalooThambi-Regular, Baloo Thambi;}.cls-3,.cls-6{letter-spacing:0.03em;}.cls-4{font-size:51.88px;letter-spacing:0.03em;}.cls-5{letter-spacing:0.02em;}.cls-7{letter-spacing:0.02em;}.cls-8{letter-spacing:-0.01em;}.cls-9{letter-spacing:0.03em;}</style></defs><title>Asset 1background 2</title><g id="Layer_2" data-name="Layer 2"><g id="Layer_1-2" data-name="Layer 1"><path class="cls-1" d="M77,122.66a15.76,15.76,0,0,0,6.85-1.28c2.21-1.11,2.12-1.9,2.08-2.84-.13-2.84-4.28-.77-4.86-2.32-.21-.56-.51-.56-.08-1a3.4,3.4,0,0,1,2.43-.6h.91c.44,0,.92,0,1.43-.05h.47a4.9,4.9,0,0,0,4.3-2.07c1.25-2,.9-4.07-.51-5s-3.26-.19-6.32-1c-1.11-.3-2-1-1.81-1.81.25-1.13,4.22,0,5.55-1.58A3.81,3.81,0,0,0,87.6,98a4.27,4.27,0,0,0-3.52-1.24c-3.75,0-9.82,1.83-18,2.43-.87.06-2.06.14-3.44.21-.35,7.08-1.74,14.82-2.21,21.83,3,.36,6.28.68,10,.92A58.84,58.84,0,0,0,77,122.66Z"/><path class="cls-1" d="M100.92,55.87C97.2,48.42,91.8,43.15,92.15,44c5.55,13-32.83,15.16-41.28,11-7.34-3.59-2.91-.66-6,.69a29.61,29.61,0,0,0-7.74,5.16,4.64,4.64,0,0,1-3,.68c.08.41.14.84.2,1.28-.24-1.86.35.79.48,1.14s.28.78.43,1.16a57.69,57.69,0,0,1,2.26,5.67A6.89,6.89,0,0,1,36.45,77c4,.25,14.59,1.59,17.84,3.77,7.46,5,8.48,10.21,8.46,15.9,1.21-.06,2.28-.13,3.15-.19A106.29,106.29,0,0,0,76.8,95,43.8,43.8,0,0,1,84.08,94c.94,0,3.82,0,5.65,2.26a6.43,6.43,0,0,1,.08,8.21,5.47,5.47,0,0,1,1.7.77c2.72,1.85,3.28,5.62,1.3,8.77a7,7,0,0,1-4.4,3.11,5.27,5.27,0,0,1,.22,1.28v.06a6.21,6.21,0,0,1-.07,1.29c0,.14.06.27.07.42.08,1.65-.35,2.78-2.84,4a17.22,17.22,0,0,1-7.46,1.38,49.31,49.31,0,0,1-5.57-.39l-.11,0c-.38,0-.68-.08-.88-.09h-.12v0l-.29,0c-3-.19-5.8-.43-8.52-.73h0c-1-.1-1.9-.21-2.81-.33-1.63,9.33-4,18.49,1.45,27.28a5.41,5.41,0,0,0,5.7,2.19L67,154c2.55-.12,4.94-1.8,4.6-4.84a17.82,17.82,0,0,1,.79-7.93c.06-.45,3.72-9.76,9.14-9.94a8.2,8.2,0,0,1,2,.24,10.14,10.14,0,0,1,.08,6.9c-1.14,3,1.25,6.53,4.16,7.33,3.33.92,6.22-1.13,7.34-4.16A32.43,32.43,0,0,0,97,132.12a37.43,37.43,0,0,1-.41-4c0-.72,0-1.44,0-2.15,0-.53-.1-1-.12-1.59a27.43,27.43,0,0,1,.13-4.16,2.46,2.46,0,0,0,0-.28c.29-1.85.63-4.16,1.05-7,2-13.64,2.26-15.53,2.41-16.85.44-3.89.7-7.86,1.21-15.65C102.55,60.77,102.29,58.61,100.92,55.87Z"/><path class="cls-2" d="M1.32,77.16a.34.34,0,0,0-.12.06c-.38.1-.78.2-1.2.27Z"/><path class="cls-2" d="M90,44c2.06,1.8,6.73,6.08,5.71,9.71-1.79,6.43-20.27,5.93-23.56,5.85-9.71-.26-22-3-25.82-6.67a12.73,12.73,0,0,0-5.16-3l-.63-.14a20.66,20.66,0,0,1-2.11-.2,5.24,5.24,0,0,0-.74.08c-.81.15-2.78.5-3.61,2.13a3.66,3.66,0,0,0-.33,2.19,4.15,4.15,0,0,0,1,2c1.22,1.54,2.68,1.88,2.58,2.2S36,58.34,34.9,58c-1.65-.48-1.7-1.23-3.09-1.68a7.72,7.72,0,0,0-4.19-.25,5.2,5.2,0,0,0-2.13,2.32A4.07,4.07,0,0,0,25.75,62c1.17,2.08,3.33,1.68,3.91,3.24S28.32,68,28.28,69.66c0,1.82,2.18,4.75,11.35,7.4,18.39,5.3,35.81,1.12,43.69-.86A62,62,0,0,0,98.8,70c5.42-3.07,7.23-4.9,9-8.86.69-1.51,2.14-9.51-2.16-13.07C100.23,43.57,90.12,43.5,90,44Z"/><path class="cls-2" d="M34.21,77.16a.24.24,0,0,1,.11.06c.39.1.79.2,1.21.27Z"/><path class="cls-2" d="M33.1,158.47c2.1,3.28,19.46,1.46,21.34,1.35,2.08-.21,2.14-.21.19,0,.57-.1,1.13-.21,1.69-.34,6.81-2.85-3.27-8.84-4-15.49-.86-8.34.54-17-4.9-20.9-.83-.59-1.28-.69-4.39-1.64-20.12-6.14-23.69-9-26-11.52-1.24-1.39-1.66-2.21-2.06-2.06-1.88.67.91,21.17,11.18,39.56C29.59,153.45,31.34,154.91,33.1,158.47Z"/><path class="cls-1" d="M66.9,28.31c-2.85,2.8-3.31,7.52-3.36,8.56a12.35,12.35,0,0,0,2.13,7.62,12.93,12.93,0,0,0,8.76,5.16C79,50.22,85,48.46,87.7,43.09a12.63,12.63,0,0,0-2.21-14.17c-5.21-5.4-13.86-3.32-14.25-3.19A9.57,9.57,0,0,0,66.9,28.31Z"/><path class="cls-2" d="M69.37,11.08C58.91.24,41.55,4.42,40.77,4.67a19.1,19.1,0,0,0-8.71,5.18C26.33,15.48,25.41,25,25.31,27a24.78,24.78,0,0,0,4.28,15.28,23.35,23.35,0,0,0,4.77,5,12.87,12.87,0,0,1,1.87-.16,13.25,13.25,0,0,1,10.54,5.42l.41.06A28.37,28.37,0,0,0,65.26,48.8c-.22-.27-.43-.55-.64-.85a13.68,13.68,0,0,1-2.36-8.44c.05-1.15.56-6.39,3.73-9.49a10.53,10.53,0,0,1,4.81-2.87,20.51,20.51,0,0,1,5.45-.54A25.82,25.82,0,0,0,69.37,11.08ZM62.68,47.72c-.18.09-.35.2-.54.28A18.42,18.42,0,0,1,37.6,23.6a18.41,18.41,0,0,0,24.21,22C62.07,46.33,62.37,47,62.68,47.72Z"/><path class="cls-2" d="M57.49,120.85l1,.14h0c3.45.46,7.38.86,11.95,1.16a58.84,58.84,0,0,0,6.46.51,15.76,15.76,0,0,0,6.85-1.28c2.21-1.11,2.12-1.9,2.08-2.84a1.87,1.87,0,0,0-.17-.73c-1,0-2.08,0-2.35-.68a1.78,1.78,0,0,0-.12-.24c-1,0-2,0-2.22-.67s-.51-.56-.08-1a3.4,3.4,0,0,1,2.43-.6h.91c.44,0,.92,0,1.43-.05h.47a4.9,4.9,0,0,0,4.3-2.07c1.11-1.76,1-3.59-.07-4.65a18.69,18.69,0,0,1-4.42-.49,3.5,3.5,0,0,1-1.36-.7c-.31-.06-.64-.13-1-.22-1.11-.3-2-1-1.81-1.81.25-1.13,4.22,0,5.55-1.58A3.81,3.81,0,0,0,87.6,98a4.12,4.12,0,0,0-.31-.28c-3.65-.34-10,1.74-18.85,2.39-6.58.48-29.82,1.93-31.39-8.09-.88-5.65,4.16-15-2.73-14.8a12.1,12.1,0,0,1-5-2.72c-.39-.17-.79-.35-1.17-.54a4,4,0,0,1-2-2.21,5.4,5.4,0,0,1,.3-6.77,7.36,7.36,0,0,1-2.22-1.83c-4.24-1.85-3.56-9.49,2-9.49a5.29,5.29,0,0,1,1.42.2,5.16,5.16,0,0,1,2.85-.1,5.11,5.11,0,0,1,2.32-6.2,17.88,17.88,0,0,1-7.28-7.77,19,19,0,0,1-1.91-4.35,15.65,15.65,0,0,0-1.37,1.29c-2,2.18-4.58,5.73-7.87,13.28A68.25,68.25,0,0,0,8.85,77.88c.22,9.32.44,18.1,6.32,25.93,4,5.31,8.6,9.88,20,12.38,6.38,1.4,12.06,3.57,22.26,5.2Z"/><path class="cls-1" d="M105.08,45c-4.32-3.57-11-4.74-14.9-4.91a15.39,15.39,0,0,0-4.24-10.37,15.17,15.17,0,0,0-9.3-4.36A28.61,28.61,0,0,0,69,8.25C62.43,1.43,53.53,0,47.23,0a38.92,38.92,0,0,0-9.65,1.13A21.85,21.85,0,0,0,27.79,7C21,13.68,20.28,24.75,20.22,26a29.48,29.48,0,0,0,.35,5.89,2.67,2.67,0,0,0-1.07.55,19.61,19.61,0,0,0-1.59,1.5c-1.82,2-4.67,5.53-8.38,14.07A71.27,71.27,0,0,0,3.75,77c.23,9.33.47,19,6.88,27.51l.24.31a3.45,3.45,0,0,0-1.07,1.52c-1.62,4.32,2.11,24.32,11.67,41.46a75.63,75.63,0,0,0,4.3,6.84,32.76,32.76,0,0,1,2.53,4.1,2.15,2.15,0,0,0,.14.26c1.47,2.29,5,3.23,12.16,3.23,4.27,0,8.63-.36,10.73-.53l.93-.08h.11l1.21-.12A3.71,3.71,0,0,0,55.3,161a5.94,5.94,0,0,0,3.58-3.7,4.63,4.63,0,0,0,.2-1.46,8.48,8.48,0,0,0,3.91.93,8,8,0,0,0,6-2.51,6.44,6.44,0,0,0,.63-.85,5,5,0,0,0,1-3.21,7.64,7.64,0,0,0,0-1.35c-.06-.54-.09-1.06-.1-1.58a14.21,14.21,0,0,1,.81-4.7l.08-.26c.37-1.09,3.71-8.33,7.77-8.46l.57,0,.33,0,.08.31A7.34,7.34,0,0,1,80,138.9a6,6,0,0,0,.4,5,7.66,7.66,0,0,0,4.69,3.8A7.76,7.76,0,0,0,87,148h0A7.65,7.65,0,0,0,94,142.89a31.62,31.62,0,0,0,2-13.42c-.06-.74.41-8.62.77-11.69.18-1.16.37-2.46.6-4,2.09-14,2.28-15.71,2.42-17,.45-4,.72-8.2,1.21-15.78.33-5,.56-8.93.7-12A17.21,17.21,0,0,0,108,61.37C109,59.23,110.7,49.7,105.08,45ZM75.35,28A12.92,12.92,0,0,1,84,31.67a12.63,12.63,0,0,1,2.21,14.17c-2.39,4.73-7.34,6.66-11.58,6.66a12.94,12.94,0,0,1-9.1-3.66c.06-.17-4.34-4.94-3.18-11.13a13.59,13.59,0,0,1,3.27-6.65C67.47,29.06,71.57,27.58,75.35,28Zm13,19.54c2.57,2.83,2.43,4.17,2.35,4.45-.37,1.34-4.59,3.88-17.87,3.88-1.34,0-2.4,0-3,0a71.41,71.41,0,0,1-14.53-2,29.62,29.62,0,0,0,8.14-3.16,15.85,15.85,0,0,0,9.07,4.41,17.07,17.07,0,0,0,2,.12C79.25,55.25,85.23,53.21,88.36,47.56ZM23,26.11c.1-2.08,1-11.55,6.75-17.17a19.14,19.14,0,0,1,8.71-5.19,36.56,36.56,0,0,1,8.8-1c6.05,0,14,1.39,19.8,7.41a25.82,25.82,0,0,1,6.82,15.07,20.41,20.41,0,0,0-5,.63,12.24,12.24,0,0,0-5.42,3.24c-3.78,3.71-4.15,9.72-4.18,10.4a15,15,0,0,0,2.46,9.06,28.28,28.28,0,0,1-12.47,3.37,11.53,11.53,0,0,1-3.37-2,15.39,15.39,0,0,0-6.3-3.69,6.29,6.29,0,0,0-.66-.16l-.14,0a2.07,2.07,0,0,0-.5-.06,15.52,15.52,0,0,1-1.78-.17,3,3,0,0,0-.42,0h-.17a10.24,10.24,0,0,0-1.06.13c-.18,0-.43.07-.72.14a2.67,2.67,0,0,0-1.32-1.33,15,15,0,0,1-7.13-7.09l-.12-.21a16.58,16.58,0,0,1-1.64-3.71,2.73,2.73,0,0,0-.35-.73A25.62,25.62,0,0,1,23,26.11ZM54,158.54c-.56.13-1.13.24-1.69.35l1.31-.14-1.5.16c-1,.05-6.37.59-11.5.59-4.52,0-8.86-.41-9.84-1.95-1.76-3.56-3.51-5-6.88-11.06C13.81,128.46,10.93,108.4,12.6,107c4.38,5.12,9.68,8.78,19.63,11,.6.13,1.18.28,1.77.43q3,1,6.73,2.13c3.11,1,3.56,1,4.39,1.63,5.44,3.88,4,12.56,4.9,20.9C50.71,149.7,60.79,155.69,54,158.54Zm-4.93-36.37c1.66.34,3.45.67,5.4,1-.18,1-.37,2.11-.56,3.14A85.58,85.58,0,0,0,52.42,137a1,1,0,0,1,0-.17C52.21,131.49,52,126,49.05,122.17ZM98.28,80.91c-.51,7.79-.77,11.77-1.21,15.65-.15,1.33-.37,3.22-2.41,16.86-.25,1.69-.47,3.17-.67,4.5h0c-.35,3.06-.8,10.73-.73,11.73A28.88,28.88,0,0,1,91.45,142a4.61,4.61,0,0,1-5.68,3.19,5,5,0,0,1-3-2.45,3.5,3.5,0,0,1-.27-2.87,10.37,10.37,0,0,0,.06-7.14l-.31-1.07-.78-.19a10.16,10.16,0,0,0-2.36-.27c-2.82.09-5.18,2-7,4.26h0a22.21,22.21,0,0,0-2,3.09,22.64,22.64,0,0,0-1.5,2.67,16.78,16.78,0,0,0-.91,5.93,19.34,19.34,0,0,0,.13,2.72c0,.11,0,.2,0,.3-.26,2.5-2.56,3.84-4.9,3.84a5.21,5.21,0,0,1-4.51-2.32c-5.57-9-2.94-18.48-1.31-28.09l.32-2.73.8.11h0c-11.26-1.53-17.37-3.73-23.72-5.27-13.16-4.36-16-6.61-17.76-8.52-.35-.4-.63-.74-.88-1A5.49,5.49,0,0,0,14,104.44c-.41-.51-.82-1-1.21-1.55C7,95.06,6.73,86.28,6.51,77A68.19,68.19,0,0,1,12.05,49.1c3.29-7.56,5.83-11.11,7.87-13.29a13.81,13.81,0,0,1,1.23-1.16,26,26,0,0,0,8.9,13.72,5.79,5.79,0,0,0-.78,1.15,6.16,6.16,0,0,0-.66,2.87,11.68,11.68,0,0,0-1.95-.16,6.31,6.31,0,0,0-2.48.41,8,8,0,0,0-3.48,3.57A6.76,6.76,0,0,0,21,62.38a6.89,6.89,0,0,0,3.35,2.93v0a6.59,6.59,0,0,0-1.16,3.34c-.09,4,4,7.24,12.27,9.78.84,3.07-1.36,8.74-.75,12.65,1.11,7.11,13.17,8.44,22.42,8.44.88,0,1.72,0,2.54,0l.09-2.75c0-5.51-1.13-10.56-8.27-15.44,1.59.1,3.2.16,4.83.16A101.77,101.77,0,0,0,81.65,78a64.93,64.93,0,0,0,16.17-6.46l1.05-.62C98.74,73.59,98.54,76.88,98.28,80.91ZM31.86,76.24l1.33.33Zm6,8.78a36.48,36.48,0,0,0,.52-4.33c4.4.6,9.64,1.63,11.36,2.79C56.15,87.77,57,91.93,57,96.8c-11.67,0-19-2.3-19.58-6.12A20.54,20.54,0,0,1,37.88,85Zm67.6-24.79c-1.79,4-3.6,5.79-9,8.86A62,62,0,0,1,81,75.28a99.45,99.45,0,0,1-24.66,3.45,68.37,68.37,0,0,1-19-2.59c-9.17-2.64-11.39-5.58-11.35-7.39,0-1.66,2-2.88,1.38-4.47S24.58,63.11,23.4,61a4.12,4.12,0,0,1-.25-3.55,5.29,5.29,0,0,1,2.12-2.32A4.07,4.07,0,0,1,26.66,55a9.29,9.29,0,0,1,2.81.44c1.39.44,1.43,1.19,3.09,1.67a6.08,6.08,0,0,0,1.66.26c.41,0,.69-.06.73-.19.1-.31-1.37-.65-2.58-2.19a4.24,4.24,0,0,1-1-2,3.74,3.74,0,0,1,.32-2.2c.84-1.63,2.81-2,3.62-2.13l.74-.08a16.22,16.22,0,0,0,2.11.2l.63.14a12.86,12.86,0,0,1,5.16,3c3.84,3.69,16.11,6.41,25.82,6.67.59,0,1.66,0,3,0,6.32,0,19-.61,20.52-5.89.76-2.73-1.68-5.82-3.82-8A15.89,15.89,0,0,0,90,42.87c3.33.14,9.5,1.11,13.33,4.29C107.62,50.72,106.17,58.73,105.48,60.23Z"/><path class="cls-1" d="M60.91,99.48l-.62,0,.63,0Z"/><text class="cls-3" transform="translate(124.29 64.73)">the<tspan class="cls-4"><tspan x="0" y="40.17">FIRENZE</tspan></tspan><tspan class="cls-5"><tspan x="0" y="70.29">F</tspan><tspan class="cls-6" x="17.99" y="70.29">OUN</tspan><tspan class="cls-7" x="87.21" y="70.29">D</tspan><tspan class="cls-8" x="109.53" y="70.29">A</tspan><tspan class="cls-9" x="129.67" y="70.29">TION</tspan></tspan></text></g></g></svg>